<svg xmlns="http://www.w3.org/2000/svg" viewBox="0 0 128 128" width="128" height="128">
  <defs>
    <linearGradient id="grad" x1="0%" y1="0%" x2="100%" y2="100%">
      <stop offset="0%" style="stop-color:#10b981;stop-opacity:1" />
      <stop offset="100%" style="stop-color:#8b5cf6;stop-opacity:1" />
    </linearGradient>
  </defs>
  <rect width="128" height="128" rx="24" fill="url(#grad)"/>
  <path d="M64 20 L64 20 C80 20 96 36 96 52 L96 60 C96 68 88 76 80 76 L48 76 C40 76 32 68 32 60 L32 52 C32 36 48 20 64 20Z" fill="white" opacity="0.2"/>
  <path d="M64 28 L64 28 C76 28 88 40 88 52 L88 56 C88 62 84 68 78 68 L50 68 C44 68 40 62 40 56 L40 52 C40 40 52 28 64 28Z" fill="white" opacity="0.3"/>
  <path d="M64 36 C72 36 80 44 80 52 L80 56 C80 60 76 64 72 64 L56 64 C52 64 48 60 48 56 L48 52 C48 44 56 36 64 36Z" fill="white"/>
  <circle cx="64" cy="52" r="8" fill="url(#grad)"/>
  <path d="M64 48 L66 50 L64 52 L62 50Z" fill="white"/>
  <path d="M44 80 L84 80 L80 100 L48 100Z" fill="white" opacity="0.8"/>
  <path d="M48 100 L80 100 L76 108 L52 108Z" fill="white" opacity="0.6"/>
</svg>
